<?xml version="1.0" encoding="UTF-8" standalone="no"?>
<svg
   xmlns:dc="http://purl.org/dc/elements/1.1/"
   xmlns:cc="http://creativecommons.org/ns#"
   xmlns:rdf="http://www.w3.org/1999/02/22-rdf-syntax-ns#"
   xmlns:svg="http://www.w3.org/2000/svg"
   xmlns="http://www.w3.org/2000/svg"
   xmlns:sodipodi="http://sodipodi.sourceforge.net/DTD/sodipodi-0.dtd"
   xmlns:inkscape="http://www.inkscape.org/namespaces/inkscape"
   height="100px"
   width="100px"
   fill="#000000"
   version="1.1"
   x="0px"
   y="0px"
   viewBox="0 0 30 30"
   xml:space="preserve"
   id="svg6"
   sodipodi:docname="cat-black.svg"
   inkscape:version="0.92.5 (2060ec1f9f, 2020-04-08)"><metadata
     id="metadata12"><rdf:RDF><cc:Work
         rdf:about=""><dc:format>image/svg+xml</dc:format><dc:type
           rdf:resource="http://purl.org/dc/dcmitype/StillImage" /></cc:Work></rdf:RDF></metadata><defs
     id="defs10" /><sodipodi:namedview
     pagecolor="#ffffff"
     bordercolor="#666666"
     borderopacity="1"
     objecttolerance="10"
     gridtolerance="10"
     guidetolerance="10"
     inkscape:pageopacity="0"
     inkscape:pageshadow="2"
     inkscape:window-width="2560"
     inkscape:window-height="1417"
     id="namedview8"
     showgrid="false"
     inkscape:zoom="2.36"
     inkscape:cx="50"
     inkscape:cy="50"
     inkscape:window-x="1912"
     inkscape:window-y="-8"
     inkscape:window-maximized="1"
     inkscape:current-layer="svg6" /><g
     transform="translate(-450,-202.4)"
     id="g4"><path
       d="m 479.04,226.682 c 0,0 -2.916,-3.715 -3.116,-5.354 -0.199,-1.637 -0.28,-3.316 0.04,-3.516 0.319,-0.199 1.318,-0.998 1.318,-0.998 l 1.439,0.119 0.919,-1.438 c 0,0 -1.079,-0.92 -1.119,-1.318 -0.04,-0.4 -1.398,-1.119 -1.398,-1.119 l -0.279,-1.598 -0.719,0.279 c 0,0 -0.72,1.598 -2.436,2.277 -0.999,1.119 -2.157,1.318 -2.157,1.318 0,0 -3.755,-1.039 -5.832,-1.238 -1.889,-0.182 -4.563,-0.098 -5.635,0.158 -0.009,0.002 -0.018,0 -0.025,0.002 -3.583,0.77 -4.705,-2.059 -5.549,-5.021 -0.073,-0.258 -0.141,-0.494 -0.205,-0.697 -0.64,-2.023 -2.737,-2.217 -3.758,-2.035 -0.347,0.063 -0.576,0.391 -0.517,0.738 0.06,0.346 0.389,0.58 0.738,0.521 0.189,-0.033 1.865,-0.271 2.316,1.16 0.062,0.193 0.125,0.418 0.195,0.662 0.542,1.902 1.574,5.521 4.849,6.021 -0.595,0.623 -1.166,1.426 -1.479,2.324 -0.639,1.838 -1.317,3.676 -2.036,4.516 -0.72,0.838 -1.519,2.955 -1.559,3.395 -0.04,0.439 0.24,2.158 0.24,2.158 h 1.917 l -0.159,-1.08 -0.439,-0.279 c 0,0 0.159,-1.836 0.958,-2.396 0.798,-0.559 3.835,-2.875 4.594,-2.875 0.759,0 0.279,3.594 0.479,3.795 0.2,0.199 1.998,2.836 1.998,2.836 h 2.037 l -0.12,-0.959 -0.519,-0.32 h -0.839 c 0,0 -0.959,-1.557 -0.8,-1.957 0.16,-0.398 1.479,-2.596 1.759,-3.355 l 3.755,0.559 -0.04,5.434 0.499,0.6 h 1.538 l 0.12,-0.799 -0.679,-0.539 c 0,0 0.878,-3.975 1.797,-4.295 0.919,-0.32 4.194,1.598 5.232,3.195 1.039,1.598 2.237,2.438 2.237,2.438 h 1.398 v -1.039 z"
       id="path2"
       inkscape:connector-curvature="0" /></g></svg>